ffmpeg started on 2016-11-27 at 03:41:40
Report written to "Output/NVENCh264/results/ffmpeg/sintelllhq2500k.log"
Command line:
Tools/ffmpeg/ffmpeg -benchmark -y -i Input/y4m/sintel.y4m -c:v h264_nvenc -preset llhq -b:v 2500k -an Output/NVENCh264/encoded/sintelllhq2500k.mkv
ffmpeg version N-82227-gdb23fde Copyright (c) 2000-2016 the FFmpeg developers
  built with gcc 5.4.0 (Ubuntu 5.4.0-6ubuntu1~16.04.2) 20160609
  configuration: --prefix=/home/jaroslav/ffmpeg_build --pkg-config-flags=--static --extra-cflags=-I/home/jaroslav/ffmpeg_build/include --extra-ldflags=-L/home/jaroslav/ffmpeg_build/lib --bindir=/home/jaroslav/bin --enable-gpl --enable-libass --enable-libfdk-aac --enable-libfreetype --enable-libmp3lame --enable-libopus --enable-libtheora --enable-libvorbis --enable-libvpx --enable-libx264 --enable-libx265 --enable-nvenc --enable-libmfx --enable-libxvid --enable-libgsm --enable-libopencore-amrnb --enable-version3 --enable-nonfree
  libavutil      55. 35.100 / 55. 35.100
  libavcodec     57. 66.101 / 57. 66.101
  libavformat    57. 57.100 / 57. 57.100
  libavdevice    57.  2.100 / 57.  2.100
  libavfilter     6. 66.100 /  6. 66.100
  libswscale      4.  3.100 /  4.  3.100
  libswresample   2.  4.100 /  2.  4.100
  libpostproc    54.  2.100 / 54.  2.100
Input #0, yuv4mpegpipe, from 'Input/y4m/sintel.y4m':
  Duration: 00:00:20.83, start: 0.000000, bitrate: 2057307 kb/s
    Stream #0:0: Video: rawvideo (I420 / 0x30323449), yuv420p(progressive), 4096x1744, SAR 1:1 DAR 256:109, 24 fps, 24 tbr, 24 tbn, 24 tbc
[h264_nvenc @ 0x453e1c0] The variable bitrate rate-control requires the 'qmin' and/or 'qmax' option set.
Output #0, matroska, to 'Output/NVENCh264/encoded/sintelllhq2500k.mkv':
  Metadata:
    encoder         : Lavf57.57.100
    Stream #0:0: Video: h264 (h264_nvenc) (Main) (H264 / 0x34363248), yuv420p, 4096x1744 [SAR 1:1 DAR 256:109], q=-1--1, 2500 kb/s, 24 fps, 1k tbn, 24 tbc
    Metadata:
      encoder         : Lavc57.66.101 h264_nvenc
    Side data:
      cpb: bitrate max/min/avg: 0/0/2500000 buffer size: 5000000 vbv_delay: -1
Stream mapping:
  Stream #0:0 -> #0:0 (rawvideo (native) -> h264 (h264_nvenc))
Press [q] to stop, [?] for help
frame=   17 fps=0.0 q=0.0 size=       0kB time=00:00:00.00 bitrate=N/A speed=   0x    frame=   28 fps= 22 q=0.0 size=       0kB time=00:00:00.00 bitrate=N/A speed=   0x    frame=   49 fps= 27 q=49.0 size=       1kB time=00:00:00.75 bitrate=   8.0kbits/s speed=0.42x    frame=   70 fps= 30 q=49.0 size=       1kB time=00:00:01.62 bitrate=   3.7kbits/s speed=0.708x    frame=   91 fps= 32 q=49.0 size=       1kB time=00:00:02.50 bitrate=   2.4kbits/s speed=0.892x    frame=  112 fps= 34 q=49.0 size=       1kB time=00:00:03.37 bitrate=   1.8kbits/s speed=1.02x    frame=  133 fps= 35 q=49.0 size=       1kB time=00:00:04.25 bitrate=   1.4kbits/s speed=1.11x    frame=  144 fps= 21 q=48.0 size=       1kB time=00:00:04.70 bitrate=   1.3kbits/s speed=0.701x    frame=  145 fps= 16 q=47.0 size=       1kB time=00:00:04.75 bitrate=   1.3kbits/s speed=0.511x    frame=  146 fps= 12 q=48.0 size=    1451kB time=00:00:04.79 bitrate=2480.6kbits/s speed=0.378x    frame=  161 fps= 12 q=49.0 size=    1451kB time=00:00:05.41 bitrate=2194.5kbits/s speed=0.41x    frame=  182 fps= 13 q=49.0 size=    1451kB time=00:00:06.29 bitrate=1889.3kbits/s speed=0.459x    frame=  203 fps= 14 q=47.0 size=    1451kB time=00:00:07.16 bitrate=1658.7kbits/s speed=0.504x    frame=  224 fps= 15 q=42.0 size=    1451kB time=00:00:08.04 bitrate=1478.3kbits/s speed=0.546x    frame=  245 fps= 16 q=46.0 size=    1451kB time=00:00:08.91 bitrate=1333.2kbits/s speed=0.585x    frame=  266 fps= 17 q=42.0 size=    1451kB time=00:00:09.79 bitrate=1214.1kbits/s speed=0.622x    frame=  287 fps= 18 q=40.0 size=    2943kB time=00:00:10.66 bitrate=2259.6kbits/s speed=0.656x    frame=  308 fps= 18 q=42.0 size=    3318kB time=00:00:11.54 bitrate=2354.7kbits/s speed=0.688x    frame=  329 fps= 19 q=39.0 size=    3318kB time=00:00:12.41 bitrate=2188.8kbits/s speed=0.718x    frame=  350 fps= 20 q=37.0 size=    3318kB time=00:00:13.29 bitrate=2044.7kbits/s speed=0.747x    frame=  370 fps= 20 q=36.0 size=    3318kB time=00:00:14.12 bitrate=1924.1kbits/s speed=0.761x    frame=  391 fps= 21 q=36.0 size=    3318kB time=00:00:15.00 bitrate=1811.9kbits/s speed=0.787x    frame=  412 fps= 21 q=37.0 size=    3318kB time=00:00:15.87 bitrate=1712.0kbits/s speed=0.811x    frame=  433 fps= 22 q=44.0 size=    4851kB time=00:00:16.75 bitrate=2372.3kbits/s speed=0.834x    frame=  454 fps= 22 q=45.0 size=    5258kB time=00:00:17.62 bitrate=2443.7kbits/s speed=0.856x    frame=  475 fps= 23 q=36.0 size=    5258kB time=00:00:18.50 bitrate=2328.1kbits/s speed=0.876x    frame=  484 fps= 22 q=38.0 size=    5258kB time=00:00:18.87 bitrate=2281.9kbits/s speed=0.873x    frame=  495 fps= 22 q=41.0 size=    5258kB time=00:00:19.33 bitrate=2227.8kbits/s speed=0.872x    frame=  500 fps= 22 q=39.0 Lsize=    6302kB time=00:00:20.79 bitrate=2482.8kbits/s speed=0.931x    
video:6297kB audio:0kB subtitle:0kB other streams:0kB global headers:0kB muxing overhead: 0.070032%
bench: utime=0.944s
bench: maxrss=1188340kB
